<svg width="64" height="64" viewBox="0 0 64 64" fill="none" xmlns="http://www.w3.org/2000/svg">
<rect width="64" height="63.6522" fill="white"/>
<path d="M33.7739 9.39169C30.226 10.1569 27.6173 12.5917 23.4782 19.1656C20.313 24.1743 20.2782 24.2091 21.1826 24.5221C22.2608 24.8352 24.0347 23.8265 25.1826 22.2265C30.7478 14.3656 37.0086 12.4873 42.2608 17.0787C43.5826 18.2265 47.1304 23.27 46.8173 23.5482C46.7478 23.6526 46.2956 23.4787 45.8434 23.1656C44.5565 22.3308 39.826 20.87 38.4 20.87C36.8695 20.87 34.226 22.0526 33.7391 22.9569C33.426 23.5134 33.7043 23.6873 35.8956 24.3482C38.8173 25.2178 40.8695 26.2265 43.3043 27.9656C48.9043 31.9656 50.1913 32.7308 51.7217 33.0091C53.7391 33.3917 56.4869 32.9743 58.3304 32.0352C59.5826 31.4091 61.913 29.3569 61.913 28.9047C61.913 28.8004 61.3217 28.3134 60.626 27.8265C58.6434 26.5047 54.0521 22.0178 52.0695 19.4787C51.0956 18.2265 49.5304 16.383 48.5565 15.3743C44.2782 10.9221 38.226 8.48735 33.7739 9.39169Z" fill="#306195"/>
<path d="M33.913 15.7571C31.3739 16.5919 30.3304 17.3571 27.9304 20.0702C26.6435 21.531 24.8 23.5136 23.8956 24.418C22.2261 26.0528 22.0522 26.7832 23.3043 26.7832C24.6609 26.7832 25.7739 25.9136 27.8261 23.3049C32.0348 17.9484 36.1739 15.8615 40.2783 17.0093C41.7739 17.4615 41.6696 17.218 39.9652 16.3484C38.1565 15.4093 35.687 15.2006 33.913 15.7571Z" fill="#306195"/>
<path d="M35.7565 17.8785C32.6261 18.9916 30.6087 20.6959 27.4087 24.8698C26.7826 25.7046 25.8783 26.609 25.3913 26.922C24.6261 27.409 24.5913 27.4437 25.2174 27.4785C25.6348 27.4785 26.6783 26.609 27.8261 25.322C32.8696 19.6176 34.6087 18.435 38.3652 18.1568C40.0696 18.0524 40.6261 17.8785 40.1739 17.7046C39.1304 17.2872 37.1826 17.3568 35.7565 17.8785Z" fill="#306195"/>
<path d="M39.8956 32.3474C39.4087 32.73 38.3652 34.2257 37.6 35.617C34.7826 40.6952 31.6522 43.5474 27.8956 44.417L25.913 44.8691L27.9652 44.6952C32.0348 44.3126 34.9565 41.8431 38.0522 36.1735C38.9565 34.5387 40.0695 32.8691 40.5565 32.417C41.6348 31.4431 41.113 31.4083 39.8956 32.3474Z" fill="#306195"/>
<path d="M41.8782 32.3473C40.9391 32.7299 39.8956 34.156 37.8782 37.7038C36.2087 40.6951 33.3217 43.7908 31.3391 44.7299C30.6435 45.0777 29.1478 45.4256 28 45.5647L25.913 45.7734L27.4435 46.2256C31.9304 47.5125 36.2782 44.7647 39.8261 38.3995C40.8 36.6951 42.0174 34.7821 42.5739 34.1908C43.1304 33.5299 43.4782 32.8343 43.3391 32.5212C43.1304 31.9299 42.9217 31.9299 41.8782 32.3473Z" fill="#306195"/>
<path d="M11.4087 32.7999C8.69563 33.5652 5.80867 35.7913 4.66085 37.9826L4.17389 38.9217L6.7478 40.1391C9.84345 41.5652 12.8 43.6173 16.313 46.8173C18.1217 48.4173 19.8956 49.5999 22.2261 50.7478L25.4735 52.1876C25.4735 52.1876 27.8917 52.9937 29.3217 53.0886C30.7517 53.1836 33.6 52.313 35.3739 51.1999C37.7391 49.6695 39.7217 47.4782 40.9739 44.9739C42.5739 41.8086 45.5652 34.8173 45.5652 34.2608C45.5652 33.4608 44.3478 33.6347 43.2348 34.5739C42.713 35.026 41.3913 36.9043 40.3826 38.7826C36.1739 46.1913 31.2695 48.8347 26.1217 46.4347C24.1739 45.5304 19.3739 41.0086 20.1043 40.7652C20.313 40.6956 21.0782 40.7999 21.8087 41.0086C23.5826 41.5304 27.5826 41.4956 29.3217 40.9739C30.6435 40.5913 33.0435 38.6086 33.0435 37.9478C33.0435 37.7739 31.8956 37.5304 30.5391 37.3913C26.7478 37.0434 24.3478 36.3826 20.1739 34.4347C16 32.4869 13.9478 32.1043 11.4087 32.7999Z" fill="#306195"/>
</svg>
